<?xml version="1.0" encoding="UTF-8" standalone="no"?>
<!DOCTYPE svg PUBLIC "-//W3C//DTD SVG 1.1//EN"
 "http://www.w3.org/Graphics/SVG/1.1/DTD/svg11.dtd">
<!-- Generated by graphviz version 2.43.0 (0)
 -->
<!-- Title: root Pages: 1 -->
<svg width="525pt" height="372pt"
 viewBox="0.00 0.00 525.29 371.98" xmlns="http://www.w3.org/2000/svg" xmlns:xlink="http://www.w3.org/1999/xlink">
<g id="graph0" class="graph" transform="scale(1 1) rotate(0) translate(4 367.98)">
<title>root</title>
<polygon fill="white" stroke="transparent" points="-4,4 -4,-367.98 521.29,-367.98 521.29,4 -4,4"/>
<!-- bs4 -->
<g id="node1" class="node">
<title>bs4</title>
<ellipse fill="#c04040" stroke="black" cx="38.85" cy="-345.98" rx="27" ry="18"/>
<text text-anchor="middle" x="38.85" y="-343.48" font-family="Helvetica,sans-Serif" font-size="10.00" fill="#ffffff">bs4</text>
</g>
<!-- src_scrape -->
<g id="node2" class="node">
<title>src_scrape</title>
<ellipse fill="#7f4cb3" stroke="black" cx="38.85" cy="-199.98" rx="38.7" ry="18"/>
<text text-anchor="middle" x="38.85" y="-197.48" font-family="Helvetica,sans-Serif" font-size="10.00" fill="#ffffff">src.scrape</text>
</g>
<!-- bs4&#45;&gt;src_scrape -->
<g id="edge1" class="edge">
<title>bs4&#45;&gt;src_scrape</title>
<path fill="none" stroke="black" d="M38.85,-327.9C38.85,-303.32 38.85,-257.74 38.85,-228.41"/>
<polygon fill="#c04040" stroke="black" points="42.35,-228.04 38.85,-218.04 35.35,-228.04 42.35,-228.04"/>
</g>
<!-- flask -->
<g id="node3" class="node">
<title>flask</title>
<ellipse fill="#80cc33" stroke="black" cx="105.85" cy="-272.98" rx="27" ry="18"/>
<text text-anchor="middle" x="105.85" y="-270.48" font-family="Helvetica,sans-Serif" font-size="10.00" fill="#000000">flask</text>
</g>
<!-- src_board -->
<g id="node4" class="node">
<title>src_board</title>
<ellipse fill="#7f4cb3" stroke="black" cx="211.85" cy="-112.98" rx="36.49" ry="18"/>
<text text-anchor="middle" x="211.85" y="-110.48" font-family="Helvetica,sans-Serif" font-size="10.00" fill="#ffffff">src.board</text>
</g>
<!-- flask&#45;&gt;src_board -->
<g id="edge2" class="edge">
<title>flask&#45;&gt;src_board</title>
<path fill="none" stroke="black" d="M104.19,-254.68C103.27,-234.26 105.21,-200.72 124.85,-181.98 174.05,-135.06 235.61,-212.29 275.85,-157.48"/>
<path fill="none" stroke="black" d="M275.85,-155.48C280.76,-148.69 265.17,-138.47 248.15,-129.87"/>
<polygon fill="#80cc33" stroke="black" points="249.2,-126.49 238.67,-125.29 246.16,-132.79 249.2,-126.49"/>
</g>
<!-- src_board_pages -->
<g id="node5" class="node">
<title>src_board_pages</title>
<ellipse fill="#6b4096" stroke="black" cx="275.85" cy="-28.99" rx="33.47" ry="28.98"/>
<text text-anchor="middle" x="275.85" y="-37.49" font-family="Helvetica,sans-Serif" font-size="10.00" fill="#ffffff">src.</text>
<text text-anchor="middle" x="275.85" y="-26.49" font-family="Helvetica,sans-Serif" font-size="10.00" fill="#ffffff">board.</text>
<text text-anchor="middle" x="275.85" y="-15.49" font-family="Helvetica,sans-Serif" font-size="10.00" fill="#ffffff">pages</text>
</g>
<!-- flask&#45;&gt;src_board_pages -->
<g id="edge3" class="edge">
<title>flask&#45;&gt;src_board_pages</title>
<path fill="none" stroke="black" d="M275.85,-155.48C286.64,-140.53 278.42,-132.25 275.85,-113.98"/>
<path fill="none" stroke="black" d="M275.85,-111.98C273.86,-97.83 273.43,-82.17 273.64,-68.35"/>
<polygon fill="#80cc33" stroke="black" points="277.15,-68.3 273.92,-58.21 270.15,-68.11 277.15,-68.3"/>
</g>
<!-- app_py -->
<g id="node11" class="node">
<title>app_py</title>
<ellipse fill="#995252" stroke="black" cx="332.85" cy="-112.98" rx="29.37" ry="18"/>
<text text-anchor="middle" x="332.85" y="-110.48" font-family="Helvetica,sans-Serif" font-size="10.00" fill="#ffffff">app.py</text>
</g>
<!-- flask&#45;&gt;app_py -->
<g id="edge11" class="edge">
<title>flask&#45;&gt;app_py</title>
<path fill="none" stroke="black" d="M275.85,-155.48C282.87,-145.75 292.87,-137.39 302.54,-130.78"/>
<polygon fill="#80cc33" stroke="black" points="304.7,-133.55 311.23,-125.2 300.92,-127.66 304.7,-133.55"/>
</g>
<!-- psycopg -->
<g id="node6" class="node">
<title>psycopg</title>
<ellipse fill="#33cccc" stroke="black" cx="205.85" cy="-345.98" rx="33.61" ry="18"/>
<text text-anchor="middle" x="205.85" y="-343.48" font-family="Helvetica,sans-Serif" font-size="10.00" fill="#000000">psycopg</text>
</g>
<!-- src_load_data -->
<g id="node7" class="node">
<title>src_load_data</title>
<ellipse fill="#7a3db8" stroke="black" cx="181.85" cy="-199.98" rx="48.04" ry="18"/>
<text text-anchor="middle" x="181.85" y="-197.48" font-family="Helvetica,sans-Serif" font-size="10.00" fill="#ffffff">src.load_data</text>
</g>
<!-- psycopg&#45;&gt;src_load_data -->
<g id="edge4" class="edge">
<title>psycopg&#45;&gt;src_load_data</title>
<path fill="none" stroke="black" d="M224.86,-330.88C248.24,-311.66 283.91,-275.25 275.85,-236.98"/>
<path fill="none" stroke="black" d="M275.85,-235.98C274.24,-230.72 251.29,-222.12 228.47,-214.76"/>
<polygon fill="#33cccc" stroke="black" points="229.36,-211.37 218.77,-211.69 227.25,-218.04 229.36,-211.37"/>
</g>
<!-- src_query_data -->
<g id="node8" class="node">
<title>src_query_data</title>
<ellipse fill="#7a3db8" stroke="black" cx="300.85" cy="-199.98" rx="52.28" ry="18"/>
<text text-anchor="middle" x="300.85" y="-197.48" font-family="Helvetica,sans-Serif" font-size="10.00" fill="#ffffff">src.query_data</text>
</g>
<!-- psycopg&#45;&gt;src_query_data -->
<g id="edge5" class="edge">
<title>psycopg&#45;&gt;src_query_data</title>
<path fill="none" stroke="black" d="M275.85,-235.98C274.77,-232.45 275.04,-228.97 276.18,-225.66"/>
<polygon fill="#33cccc" stroke="black" points="279.29,-227.28 281.3,-216.88 273.24,-223.75 279.29,-227.28"/>
</g>
<!-- src_load_data&#45;&gt;src_board_pages -->
<g id="edge8" class="edge">
<title>src_load_data&#45;&gt;src_board_pages</title>
<path fill="none" stroke="black" d="M218.57,-188.06C253.87,-177.29 301.76,-161.82 300.85,-157.48"/>
<path fill="none" stroke="black" d="M300.85,-155.48C296.42,-134.41 278.85,-135.3 275.85,-113.98"/>
</g>
<!-- src_query_data&#45;&gt;src_board_pages -->
<g id="edge10" class="edge">
<title>src_query_data&#45;&gt;src_board_pages</title>
<path fill="none" stroke="black" d="M302.43,-181.86C302.72,-174.31 302.51,-165.38 300.85,-157.48"/>
</g>
<!-- psycopg_sql -->
<g id="node9" class="node">
<title>psycopg_sql</title>
<ellipse fill="#47c2c2" stroke="black" cx="300.85" cy="-345.98" rx="43.62" ry="18"/>
<text text-anchor="middle" x="300.85" y="-343.48" font-family="Helvetica,sans-Serif" font-size="10.00" fill="#000000">psycopg.sql</text>
</g>
<!-- psycopg_sql&#45;&gt;src_load_data -->
<g id="edge6" class="edge">
<title>psycopg_sql&#45;&gt;src_load_data</title>
<path fill="none" stroke="black" d="M305.67,-327.99C310.99,-305.57 316.88,-265.62 300.85,-236.98"/>
<path fill="none" stroke="black" d="M300.85,-235.98C300.78,-235.88 261.56,-224.36 228.17,-214.56"/>
<polygon fill="#47c2c2" stroke="black" points="229.07,-211.18 218.49,-211.72 227.1,-217.9 229.07,-211.18"/>
</g>
<!-- psycopg_sql&#45;&gt;src_query_data -->
<g id="edge7" class="edge">
<title>psycopg_sql&#45;&gt;src_query_data</title>
<path fill="none" stroke="black" d="M300.85,-235.98C299.55,-233.66 298.7,-231.11 298.17,-228.48"/>
<polygon fill="#47c2c2" stroke="black" points="301.65,-227.99 297.55,-218.23 294.66,-228.42 301.65,-227.99"/>
</g>
<!-- src_main -->
<g id="node10" class="node">
<title>src_main</title>
<ellipse fill="#8547c2" stroke="black" cx="405.85" cy="-199.98" rx="34.96" ry="18"/>
<text text-anchor="middle" x="405.85" y="-197.48" font-family="Helvetica,sans-Serif" font-size="10.00" fill="#ffffff">src.main</text>
</g>
<!-- src_main&#45;&gt;src_board_pages -->
<g id="edge9" class="edge">
<title>src_main&#45;&gt;src_board_pages</title>
<path fill="none" stroke="black" d="M378.85,-188.46C347.77,-176.34 300.96,-158 300.85,-157.48"/>
</g>
<!-- src_main&#45;&gt;app_py -->
<g id="edge15" class="edge">
<title>src_main&#45;&gt;app_py</title>
<path fill="none" stroke="#666666" stroke-dasharray="5,2" d="M392.12,-182.99C380.97,-170.01 365.1,-151.53 352.58,-136.96"/>
<polygon fill="#666666" stroke="#666666" points="355.2,-134.63 346.03,-129.33 349.89,-139.19 355.2,-134.63"/>
<text text-anchor="middle" x="414.35" y="-152.78" font-family="Times,serif" font-size="14.00">subprocess</text>
</g>
<!-- huggingface_hub -->
<g id="node12" class="node">
<title>huggingface_hub</title>
<ellipse fill="#33cccc" stroke="black" cx="420.85" cy="-345.98" rx="58.73" ry="18"/>
<text text-anchor="middle" x="420.85" y="-343.48" font-family="Helvetica,sans-Serif" font-size="10.00" fill="#000000">huggingface_hub</text>
</g>
<!-- huggingface_hub&#45;&gt;app_py -->
<g id="edge12" class="edge">
<title>huggingface_hub&#45;&gt;app_py</title>
<path fill="none" stroke="black" d="M412.34,-327.97C410.47,-322.28 409.42,-315.88 410.85,-309.98"/>
<path fill="none" stroke="black" d="M410.85,-308.98C416.84,-284.26 412.05,-273.16 429.85,-254.98 445.8,-238.71 469.59,-258.21 477.85,-236.98"/>
<path fill="none" stroke="black" d="M477.85,-235.98C490.41,-198.45 486.04,-177.74 458.85,-148.98 436.79,-125.65 400.65,-117.42 372.72,-114.72"/>
<polygon fill="#33cccc" stroke="black" points="372.7,-111.21 362.46,-113.94 372.16,-118.19 372.7,-111.21"/>
</g>
<!-- llama_cpp -->
<g id="node13" class="node">
<title>llama_cpp</title>
<ellipse fill="#7a3db8" stroke="black" cx="477.85" cy="-272.98" rx="39.38" ry="18"/>
<text text-anchor="middle" x="477.85" y="-270.48" font-family="Helvetica,sans-Serif" font-size="10.00" fill="#ffffff">llama_cpp</text>
</g>
<!-- huggingface_hub&#45;&gt;llama_cpp -->
<g id="edge13" class="edge">
<title>huggingface_hub&#45;&gt;llama_cpp</title>
<path fill="none" stroke="black" d="M410.85,-308.98C412.51,-302.14 424.54,-294.89 437.95,-288.77"/>
<polygon fill="#33cccc" stroke="black" points="439.55,-291.9 447.36,-284.74 436.79,-285.47 439.55,-291.9"/>
</g>
<!-- llama_cpp&#45;&gt;app_py -->
<g id="edge14" class="edge">
<title>llama_cpp&#45;&gt;app_py</title>
<path fill="none" stroke="black" d="M475.38,-254.78C475.18,-248.96 475.69,-242.53 477.85,-236.98"/>
</g>
</g>
</svg>
