<?xml version="1.0" encoding="UTF-8" standalone="no"?>
<!DOCTYPE svg PUBLIC "-//W3C//DTD SVG 1.1//EN"
 "http://www.w3.org/Graphics/SVG/1.1/DTD/svg11.dtd">
<!-- Generated by graphviz version 2.43.0 (0)
 -->
<!-- Title: G Pages: 1 -->
<svg width="481pt" height="354pt"
 viewBox="0.00 0.00 481.01 353.98" xmlns="http://www.w3.org/2000/svg" xmlns:xlink="http://www.w3.org/1999/xlink">
<g id="graph0" class="graph" transform="scale(1 1) rotate(0) translate(4 349.98)">
<title>G</title><style>.edge>path:hover{stroke-width:8}</style>
<polygon fill="white" stroke="transparent" points="-4,4 -4,-349.98 477.01,-349.98 477.01,4 -4,4"/>
<!-- bs4 -->
<g id="node1" class="node">
<title>bs4</title><style>.edge>path:hover{stroke-width:8}</style>
<ellipse fill="#c04040" stroke="black" cx="38.85" cy="-327.98" rx="27" ry="18"/>
<text text-anchor="middle" x="38.85" y="-325.48" font-family="Helvetica,sans-Serif" font-size="10.00" fill="#ffffff">bs4</text>
</g>
<!-- src_scrape -->
<g id="node10" class="node">
<title>src_scrape</title><style>.edge>path:hover{stroke-width:8}</style>
<ellipse fill="#7f4cb3" stroke="black" cx="38.85" cy="-183.98" rx="38.7" ry="18"/>
<text text-anchor="middle" x="38.85" y="-181.48" font-family="Helvetica,sans-Serif" font-size="10.00" fill="#ffffff">src.scrape</text>
</g>
<!-- bs4&#45;&gt;src_scrape -->
<g id="edge1" class="edge">
<title>bs4&#45;&gt;src_scrape</title><style>.edge>path:hover{stroke-width:8}</style>
<path fill="none" stroke="black" d="M38.85,-309.85C38.85,-285.65 38.85,-241.19 38.85,-212.38"/>
<polygon fill="#c04040" stroke="black" points="42.35,-212.17 38.85,-202.17 35.35,-212.17 42.35,-212.17"/>
</g>
<!-- flask -->
<g id="node2" class="node">
<title>flask</title><style>.edge>path:hover{stroke-width:8}</style>
<ellipse fill="#80cc33" stroke="black" cx="405.85" cy="-255.98" rx="27" ry="18"/>
<text text-anchor="middle" x="405.85" y="-253.48" font-family="Helvetica,sans-Serif" font-size="10.00" fill="#000000">flask</text>
</g>
<!-- src_board -->
<g id="node5" class="node">
<title>src_board</title><style>.edge>path:hover{stroke-width:8}</style>
<ellipse fill="#7f4cb3" stroke="black" cx="342.85" cy="-111.98" rx="36.49" ry="18"/>
<text text-anchor="middle" x="342.85" y="-109.48" font-family="Helvetica,sans-Serif" font-size="10.00" fill="#ffffff">src.board</text>
</g>
<!-- flask&#45;&gt;src_board -->
<g id="edge2" class="edge">
<title>flask&#45;&gt;src_board</title><style>.edge>path:hover{stroke-width:8}</style>
<path fill="none" stroke="black" d="M390.59,-240.61C380.92,-230.66 368.95,-216.62 361.85,-201.98 352.4,-182.49 347.62,-158.35 345.22,-140.14"/>
<polygon fill="#80cc33" stroke="black" points="348.7,-139.7 344.07,-130.17 341.74,-140.51 348.7,-139.7"/>
</g>
<!-- src_board_pages -->
<g id="node6" class="node">
<title>src_board_pages</title><style>.edge>path:hover{stroke-width:8}</style>
<ellipse fill="#70439d" stroke="black" cx="308.85" cy="-28.99" rx="33.47" ry="28.98"/>
<text text-anchor="middle" x="308.85" y="-37.49" font-family="Helvetica,sans-Serif" font-size="10.00" fill="#ffffff">src.</text>
<text text-anchor="middle" x="308.85" y="-26.49" font-family="Helvetica,sans-Serif" font-size="10.00" fill="#ffffff">board.</text>
<text text-anchor="middle" x="308.85" y="-15.49" font-family="Helvetica,sans-Serif" font-size="10.00" fill="#ffffff">pages</text>
</g>
<!-- flask&#45;&gt;src_board_pages -->
<g id="edge3" class="edge">
<title>flask&#45;&gt;src_board_pages</title><style>.edge>path:hover{stroke-width:8}</style>
<path fill="none" stroke="black" d="M420.4,-240.37C443.86,-214.96 485.76,-160.78 468.85,-112.98"/>
</g>
<!-- psycopg -->
<g id="node3" class="node">
<title>psycopg</title><style>.edge>path:hover{stroke-width:8}</style>
<ellipse fill="#33cccc" stroke="black" cx="199.85" cy="-327.98" rx="33.61" ry="18"/>
<text text-anchor="middle" x="199.85" y="-325.48" font-family="Helvetica,sans-Serif" font-size="10.00" fill="#000000">psycopg</text>
</g>
<!-- src_load_data -->
<g id="node7" class="node">
<title>src_load_data</title><style>.edge>path:hover{stroke-width:8}</style>
<ellipse fill="#7a49ac" stroke="black" cx="266.85" cy="-183.98" rx="48.04" ry="18"/>
<text text-anchor="middle" x="266.85" y="-181.48" font-family="Helvetica,sans-Serif" font-size="10.00" fill="#ffffff">src.load_data</text>
</g>
<!-- psycopg&#45;&gt;src_load_data -->
<g id="edge4" class="edge">
<title>psycopg&#45;&gt;src_load_data</title><style>.edge>path:hover{stroke-width:8}</style>
<path fill="none" stroke="black" d="M213.85,-254.98C214.79,-236.58 226.67,-219.94 238.94,-207.51"/>
<polygon fill="#33cccc" stroke="black" points="241.67,-209.75 246.53,-200.34 236.86,-204.66 241.67,-209.75"/>
</g>
<!-- src_query_data -->
<g id="node9" class="node">
<title>src_query_data</title><style>.edge>path:hover{stroke-width:8}</style>
<ellipse fill="#7a3db8" stroke="black" cx="147.85" cy="-183.98" rx="52.28" ry="18"/>
<text text-anchor="middle" x="147.85" y="-181.48" font-family="Helvetica,sans-Serif" font-size="10.00" fill="#ffffff">src.query_data</text>
</g>
<!-- psycopg&#45;&gt;src_query_data -->
<g id="edge5" class="edge">
<title>psycopg&#45;&gt;src_query_data</title><style>.edge>path:hover{stroke-width:8}</style>
<path fill="none" stroke="black" d="M204.73,-309.9C208.38,-295.83 212.92,-275.3 213.85,-256.98"/>
<path fill="none" stroke="black" d="M213.85,-254.98C214.9,-234.39 199.59,-217.37 183.45,-205.28"/>
<polygon fill="#33cccc" stroke="black" points="185.22,-202.25 175.01,-199.41 181.22,-207.99 185.22,-202.25"/>
</g>
<!-- psycopg_sql -->
<g id="node4" class="node">
<title>psycopg_sql</title><style>.edge>path:hover{stroke-width:8}</style>
<ellipse fill="#47c2c2" stroke="black" cx="294.85" cy="-327.98" rx="43.62" ry="18"/>
<text text-anchor="middle" x="294.85" y="-325.48" font-family="Helvetica,sans-Serif" font-size="10.00" fill="#000000">psycopg.sql</text>
</g>
<!-- psycopg_sql&#45;&gt;src_load_data -->
<g id="edge6" class="edge">
<title>psycopg_sql&#45;&gt;src_load_data</title><style>.edge>path:hover{stroke-width:8}</style>
<path fill="none" stroke="black" d="M266.85,-254.98C259.35,-242.2 259,-225.72 260.68,-211.96"/>
<polygon fill="#47c2c2" stroke="black" points="264.14,-212.5 262.28,-202.07 257.23,-211.38 264.14,-212.5"/>
</g>
<!-- psycopg_sql&#45;&gt;src_query_data -->
<g id="edge7" class="edge">
<title>psycopg_sql&#45;&gt;src_query_data</title><style>.edge>path:hover{stroke-width:8}</style>
<path fill="none" stroke="black" d="M289.63,-309.92C284.8,-295.32 276.86,-274.03 266.85,-256.98"/>
<path fill="none" stroke="black" d="M266.85,-254.98C251.29,-228.47 221.46,-210.95 195.55,-200.07"/>
<polygon fill="#47c2c2" stroke="black" points="196.81,-196.81 186.22,-196.36 194.22,-203.31 196.81,-196.81"/>
</g>
<!-- src_main -->
<g id="node8" class="node">
<title>src_main</title><style>.edge>path:hover{stroke-width:8}</style>
<ellipse fill="#8547c2" stroke="black" cx="405.85" cy="-183.98" rx="34.96" ry="18"/>
<text text-anchor="middle" x="405.85" y="-181.48" font-family="Helvetica,sans-Serif" font-size="10.00" fill="#ffffff">src.main</text>
</g>
<!-- src_main&#45;&gt;src_board_pages -->
<g id="edge8" class="edge">
<title>src_main&#45;&gt;src_board_pages</title><style>.edge>path:hover{stroke-width:8}</style>
<path fill="none" stroke="black" d="M430.27,-170.77C451.45,-158.29 477.47,-137.34 468.85,-112.98"/>
<path fill="none" stroke="black" d="M468.85,-110.98C452.12,-63.66 393.01,-43.82 351.53,-35.62"/>
<polygon fill="#8547c2" stroke="black" points="352.13,-32.17 341.67,-33.82 350.88,-39.06 352.13,-32.17"/>
</g>
<!-- src_query_data&#45;&gt;src_board_pages -->
<g id="edge9" class="edge">
<title>src_query_data&#45;&gt;src_board_pages</title><style>.edge>path:hover{stroke-width:8}</style>
<path fill="none" stroke="black" d="M164.78,-166.9C192.02,-141.01 245.95,-89.77 279.54,-57.84"/>
<polygon fill="#7a3db8" stroke="black" points="281.96,-60.38 286.79,-50.95 277.13,-55.3 281.96,-60.38"/>
</g>
</g>
</svg>
